M48
; DRILL file {KiCad (5.1.9)-1} date 02/02/21 18:21:40
; FORMAT={-:-/ absolute / inch / decimal}
; #@! TF.CreationDate,2021-02-02T18:21:40+08:00
; #@! TF.GenerationSoftware,Kicad,Pcbnew,(5.1.9)-1
FMAT,2
INCH
T1C0.0320
T2C0.0394
T3C0.0579
T4C0.0591
T5C0.0787
T6C0.0689
T7C0.1200
T8C0.1570
%
G90
G05
T1
X9.3307Y-2.2047
X9.3307Y-2.3047
X9.3307Y-2.4047
X9.3307Y-2.5047
X9.3307Y-2.6047
X9.3307Y-2.7047
X9.3307Y-2.8047
X9.3307Y-2.9047
X9.3307Y-3.0047
X9.3307Y-3.1047
X9.3307Y-3.2047
X9.3307Y-3.3047
X9.9257Y-2.2057
X9.9257Y-2.3057
X9.9257Y-2.4057
X9.9257Y-2.5057
X9.9257Y-2.6057
X9.9257Y-2.7057
X9.9257Y-2.8057
X9.9257Y-2.9057
X9.9257Y-3.0057
X9.9257Y-3.1057
X9.9257Y-3.2057
X9.9307Y-3.3047
T2
X0.5906Y-0.7677
X0.5906Y-0.9646
X1.1614Y-0.7677
X1.1614Y-0.8661
X1.1614Y-0.9646
X9.1732Y-0.7677
X9.1732Y-0.9646
X9.7441Y-0.7677
X9.7441Y-0.8661
X9.7441Y-0.9646
T3
X2.2909Y-2.6559
X2.5409Y-2.5559
X3.3933Y-4.9394
X3.6433Y-4.8394
X4.102Y-2.6559
X4.352Y-2.5559
X5.0075Y-0.8055
X5.2575Y-0.7055
X5.913Y-2.6559
X6.163Y-2.5559
X6.6217Y-4.9394
X6.8717Y-4.8394
X7.724Y-2.6559
X7.974Y-2.5559
T5
X0.1673Y-0.1673
X0.1673Y-5.4232
X4.2028Y-1.6043
X5.1575Y-3.9075
X6.1122Y-1.6043
X10.1476Y-0.1673
X10.1476Y-5.4232
T6
X2.2409Y-2.7559
X2.6409Y-2.7559
X3.3433Y-5.0394
X3.7433Y-5.0394
X4.052Y-2.7559
X4.452Y-2.7559
X4.9575Y-0.9055
X5.3575Y-0.9055
X5.863Y-2.7559
X6.263Y-2.7559
X6.5717Y-5.0394
X6.9717Y-5.0394
X7.674Y-2.7559
X8.074Y-2.7559
T7
X1.9722Y-2.4809
X2.9097Y-2.4809
X3.7832Y-2.4809
X4.7207Y-2.4809
X5.5942Y-2.4809
X6.5317Y-2.4809
X7.4053Y-2.4809
X8.3428Y-2.4809
T8
X1.9722Y-3.0809
X2.4409Y-2.7559
X2.9097Y-3.0809
X3.5433Y-5.0394
X3.7832Y-3.0809
X4.252Y-2.7559
X4.7207Y-3.0809
X5.1575Y-0.9055
X5.5942Y-3.0809
X6.063Y-2.7559
X6.5317Y-3.0809
X6.7717Y-5.0394
X7.4053Y-3.0809
X7.874Y-2.7559
X8.3428Y-3.0809
T4
G00X0.8917Y-0.6457
M15
G01X0.8406Y-0.6457
M16
G05
G00X0.8917Y-1.0866
M15
G01X0.8406Y-1.0866
M16
G05
G00X9.4744Y-0.6457
M15
G01X9.4232Y-0.6457
M16
G05
G00X9.4744Y-1.0866
M15
G01X9.4232Y-1.0866
M16
G05
T0
M30
